<?xml version="1.0" encoding="UTF-8" standalone="no"?><!DOCTYPE svg PUBLIC "-//W3C//DTD SVG 1.1//EN" "http://www.w3.org/Graphics/SVG/1.1/DTD/svg11.dtd"><svg width="1075px" height="575px" version="1.1" xmlns="http://www.w3.org/2000/svg" xmlns:xlink="http://www.w3.org/1999/xlink" xml:space="preserve" xmlns:serif="http://www.serif.com/" style="fill-rule:evenodd;clip-rule:evenodd;stroke-linejoin:round;stroke-miterlimit:2;"><path id="logo" d="M1026.18,438.462l-99.81,0c-7.009,0 -15.323,2.801 -15.113,11.02c0.294,11.415 10.841,11.585 19.27,11.585l72.78,-0l0,15.07c0,25.796 -19.733,24.491 -47.825,24.489l-4.282,0c0,0 -56.361,-0.075 -63.819,1.166c-3.533,0.589 -9.341,0.989 -9.913,8.57c-0.502,6.653 3.573,10.987 13.551,10.987l91.493,-0c22.387,-0 43.668,-14.296 43.668,-39.562l0,-43.325Zm-452.381,62.164l-69.554,0c-28.092,0.002 -47.825,1.307 -47.825,-24.489l-0,-52.745c-0,-27.084 20.798,-24.489 49.905,-24.489c24.953,0 62.691,-0.012 71.777,-0.393c3.547,-0.151 9.178,-3.062 9.322,-10.909c0.111,-6.51 -7.36,-9.421 -12.765,-9.421l-97.446,0c-24.795,0 -43.666,19.868 -43.666,43.328l-0,56.514c-0,25.188 20.023,43.327 47.823,43.327l91.499,-0c9.706,-0 14.988,-3.107 14.988,-11.234c0,-8.13 -5.928,-9.183 -14.058,-9.489Zm-342.996,-2.649c-3.637,1.7 -7.431,2.649 -11.439,2.649l-76.938,0c-12.15,0 -22.873,-9.715 -22.873,-20.723c0,-11.057 6.646,-17.072 14.713,-19.328c39.856,-11.142 71.636,1.505 82.849,-26.036c10.84,-26.625 -8.799,-56.359 -39.34,-56.359l-83.179,0c-24.701,0 -45.744,15.931 -45.744,37.675l0,87.852c0,5.087 -0.551,10.814 3.027,14.441c1.695,1.72 3.49,2.866 7.268,2.772c4.415,-0.11 7.329,-3.045 8.32,-7.699c0.975,-4.573 0.926,-9.397 0.971,-16.05c0.087,-13.74 0.251,-51.029 0.416,-67.199c0.191,-19.126 5.641,-29.359 23.667,-31.069l83.174,0c9.366,0 24.623,3.783 23.857,23.036c-1.41,35.489 -102.876,-6.044 -102.876,56.083l-0,1.881c-0,22.504 19.425,41.446 43.671,41.446l81.099,-0c3.233,-0 6.344,-0.351 9.357,-0.982c54.648,-11.489 74.109,-121.464 117.488,-121.464l41.587,0l-0,109.26c-0,7.607 4.526,13.186 12.477,13.186c6.764,-0 10.398,-6.215 10.398,-11.302l0,-131.867l-66.544,0c-56.973,0 -77.359,101.999 -115.406,119.797Zm658.137,-99.074l91.494,0c19.317,0.182 20.094,10.21 23.236,21.642c1.34,4.882 5.688,8.315 10.744,8.478c0.419,0.014 0.874,0.04 1.368,0.021c8.067,-0.346 8.696,-7.967 8.832,-12.171c0.671,-20.659 -12.623,-37.776 -42.102,-38.693l-95.652,0c-25.69,0 -43.669,21.246 -43.669,45.212l0,77.234l-16.634,0c-44.992,0 -75.543,-122.446 -126.845,-122.446l-49.905,0l-0,124.33c-0,8.945 2.604,18.839 12.475,18.839c9.922,-0 12.477,-7.84 12.477,-16.952l0,-105.494l18.714,0c40.671,0 73.054,122.446 126.845,122.446l45.746,-0l0,-94.189c0,-15.631 6.018,-28.257 22.876,-28.257Zm-268.245,-20.723c-10.365,0 -12.478,7.4 -12.478,12.487l0,119.38c0,5.087 3.453,11.302 11.437,11.267c7.946,-0.031 11.436,-5.544 11.436,-13.151l0,-116.794c0,-6.352 -3.674,-13.189 -10.395,-13.189Zm-454.235,-108.429c7.403,-20.839 24.974,-56.679 35.509,-80.815c14.11,-25.828 35.065,-60.858 74.767,-63.481l40.84,0l-0.027,214.595l294.087,-0c41.134,-0 64.186,-13.824 81.705,-30.359c6.863,-6.48 13.995,-18.865 19.408,-35.98c5.259,-15.654 5.449,-40.447 5.449,-40.447l11.878,-0.512c4.707,0 6.129,0.01 6.129,0.01l0,107.288l77.599,-0l-0,-107.298l134.778,0l0,107.298l77.598,-0l0,-284.892l-77.598,0l0,107.298l-134.778,-0l-0.065,-107.298l-77.534,0l0,107.298l-179.703,-0l0,70.296l83.725,0l0,12.95c-0.481,15.11 -13.505,23.626 -26.547,24.049l-216.463,-0l-0,-215.305c-0,0 -149.354,-7.512 -199.312,23.647c-11.208,7.442 -24.447,17.825 -32.678,27.747c-19.835,23.917 -30.252,50.963 -44.152,78.838c-9.679,19.407 -68.347,144.108 -72.253,155.372l252.419,-0l-0,-70.299l-134.781,-0Zm324.695,-114.696c0,-16.72 14.217,-29.6 32.674,-29.6l83.725,0c28.94,0 33.693,22.409 33.693,22.409l76.578,-0.21c-3.95,-50.881 -55.637,-92.496 -116.4,-92.496l-73.514,0c-61.496,0 -114.354,43.188 -114.354,98.046l-0,101.747l77.598,0l0,-99.896Z" style="fill:#b00c28;"/></svg>